<svg id="Ebene_1" data-name="Ebene 1" xmlns="http://www.w3.org/2000/svg" viewBox="0 0 2500.63 1463.05"><defs><style>.cls-1{fill:#f0ca0c;}.cls-2{fill:#de9918;}.cls-3{fill:#436fb3;}.cls-4{fill:#c53418;}.cls-5{fill:#4b8b3e;}.cls-6{fill:#9174ad;}.cls-7{fill:#4cafe8;}.cls-8{fill:#4f3687;}.cls-9{fill:#96ba38;}</style></defs><title>Background_Website</title><polygon class="cls-1" points="628.59 380.42 692.27 265.46 778.02 240.49 628.59 380.42"/><polygon class="cls-1" points="191.32 668.58 411.25 605.43 547.58 680.26 191.32 668.58"/><polygon class="cls-1" points="899.42 675.87 1118.43 957.1 1088.69 804.46 899.42 675.87"/><polygon class="cls-1" points="555.89 1226.86 445.02 1427.02 705.19 1183.37 555.89 1226.86"/><polygon class="cls-2" points="724.34 755.79 809.3 710.42 875.9 726.66 724.34 755.79"/><polygon class="cls-2" points="64.53 285.85 149.48 240.49 216.09 256.72 64.53 285.85"/><polygon class="cls-2" points="196.55 1139.47 346.68 1144.44 423.98 1218.31 196.55 1139.47"/><polygon class="cls-2" points="145.99 1450.19 231.72 1326.85 335.74 1302.09 145.99 1450.19"/><polygon class="cls-2" points="2146.57 316.53 2232.31 193.19 2336.32 168.43 2146.57 316.53"/><polygon class="cls-3" points="341.54 340.49 183.15 368.52 124.31 447.93 341.54 340.49"/><polygon class="cls-3" points="1043.66 525.17 938.31 543.82 899.18 596.64 1043.66 525.17"/><polygon class="cls-3" points="547.14 93.56 541.95 159.09 626.61 21.92 547.14 93.56"/><polygon class="cls-3" points="365.12 914.4 259.76 933.05 220.63 985.86 365.12 914.4"/><polygon class="cls-4" points="697.68 390.97 832.43 418.55 866.67 490.32 697.68 390.97"/><polygon class="cls-4" points="882.53 1103.81 1017.28 1131.39 1051.51 1203.16 882.53 1103.81"/><polygon class="cls-4" points="903.28 1274.94 909.38 1412.35 848.13 1463.05 903.28 1274.94"/><polygon class="cls-4" points="168.99 820.18 134.75 748.41 0 720.83 168.99 820.18"/><polygon class="cls-4" points="830.49 144.27 901.59 158.82 919.66 196.69 830.49 144.27"/><polygon class="cls-5" points="538.66 505.12 509.63 446.8 472.49 444 538.66 505.12"/><polygon class="cls-5" points="1168.21 469.59 1114.81 362.32 1046.5 357.16 1168.21 469.59"/><polygon class="cls-5" points="796.97 1170.49 743.18 1062.45 674.39 1057.26 796.97 1170.49"/><polygon class="cls-5" points="167.44 1085.08 113.66 977.04 44.86 971.85 167.44 1085.08"/><polygon class="cls-5" points="644 133.73 763.92 120.14 792.33 57.27 644 133.73"/><polygon class="cls-6" points="580.72 883.34 380.99 1098.54 518.66 1030.26 580.72 883.34"/><polygon class="cls-6" points="573.82 343.5 424.77 263.74 483.19 330.6 573.82 343.5"/><polygon class="cls-7" points="805.51 606.5 721.96 568.38 657.73 605.13 805.51 606.5"/><polygon class="cls-7" points="210.23 1243.91 126.68 1205.8 62.44 1242.54 210.23 1243.91"/><polygon class="cls-8" points="367.2 764.54 389.23 809.56 367.58 839.53 367.2 764.54"/><polygon class="cls-8" points="814.19 938.32 900.44 956.54 918.54 1019 814.19 938.32"/><polygon class="cls-9" points="335.85 189.19 299.44 79.95 240.9 64.49 335.85 189.19"/><polygon class="cls-9" points="624 811.94 571.65 760.38 533.89 768.55 624 811.94"/><polygon class="cls-9" points="977.46 293.94 875.11 289.35 843.6 333.05 977.46 293.94"/><polygon class="cls-9" points="273.32 528.73 170.96 524.14 139.46 567.84 273.32 528.73"/><polygon class="cls-1" points="1739.01 358.51 1802.68 243.55 1888.44 218.57 1739.01 358.51"/><polygon class="cls-1" points="1301.74 646.66 1521.67 583.52 1657.99 658.35 1301.74 646.66"/><polygon class="cls-1" points="2249.44 9.73 2452.77 114.66 2500.63 262.63 2249.44 9.73"/><polygon class="cls-1" points="1949.5 885.88 2282.02 757.5 2127.29 741.86 1949.5 885.88"/><polygon class="cls-1" points="1666.3 1204.94 1555.44 1405.1 1815.61 1161.45 1666.3 1204.94"/><polygon class="cls-2" points="1834.76 733.87 1919.71 688.5 1986.32 704.74 1834.76 733.87"/><polygon class="cls-2" points="1113.13 171.45 1301.36 336.82 1286.18 240.12 1113.13 171.45"/><polygon class="cls-2" points="1306.97 1117.56 1457.1 1122.53 1534.4 1196.4 1306.97 1117.56"/><polygon class="cls-3" points="1533.71 307.01 1375.31 335.05 1316.48 414.45 1533.71 307.01"/><polygon class="cls-3" points="2154.08 503.26 2048.73 521.91 2009.6 574.72 2154.08 503.26"/><polygon class="cls-3" points="1657.56 71.64 1652.36 137.17 1737.03 0 1657.56 71.64"/><polygon class="cls-3" points="1475.54 892.49 1370.18 911.13 1331.05 963.95 1475.54 892.49"/><polygon class="cls-4" points="1808.1 369.05 1942.85 396.63 1977.09 468.4 1808.1 369.05"/><polygon class="cls-4" points="1955.88 1278.95 2113.91 1175.21 2216.84 1211.94 1955.88 1278.95"/><polygon class="cls-4" points="1279.4 798.26 1245.17 726.5 1110.42 698.91 1279.4 798.26"/><polygon class="cls-4" points="1940.91 122.36 2012.01 136.91 2030.08 174.78 1940.91 122.36"/><polygon class="cls-5" points="1649.08 483.21 1620.05 424.88 1582.9 422.08 1649.08 483.21"/><polygon class="cls-5" points="1919.66 1052.58 1799.96 1068.03 1772.53 1131.33 1919.66 1052.58"/><polygon class="cls-5" points="1277.86 1063.16 1224.08 955.12 1155.28 949.93 1277.86 1063.16"/><polygon class="cls-5" points="1619.98 234.69 1739.9 221.1 1768.31 158.23 1619.98 234.69"/><polygon class="cls-6" points="1737.8 977.92 1444.74 960.13 1584.88 1023.2 1737.8 977.92"/><polygon class="cls-6" points="1684.24 321.58 1535.19 241.82 1593.61 308.68 1684.24 321.58"/><polygon class="cls-7" points="1915.93 584.58 1832.38 546.47 1768.14 583.21 1915.93 584.58"/><polygon class="cls-7" points="1320.65 1222 1237.1 1183.89 1172.86 1220.63 1320.65 1222"/><polygon class="cls-8" points="1477.62 742.62 1499.65 787.65 1478 817.62 1477.62 742.62"/><polygon class="cls-8" points="1924.61 916.4 2010.86 934.63 2028.96 997.08 1924.61 916.4"/><polygon class="cls-9" points="1399.37 141.71 1362.97 32.48 1304.42 17.02 1399.37 141.71"/><polygon class="cls-9" points="1734.41 790.02 1682.07 738.46 1644.31 746.63 1734.41 790.02"/><polygon class="cls-9" points="2087.88 272.02 1985.53 267.43 1954.02 311.14 2087.88 272.02"/><polygon class="cls-9" points="2487.44 478.55 2337.83 325.56 2227.43 347.3 2487.44 478.55"/><polygon class="cls-9" points="1383.73 506.81 1281.38 502.22 1249.88 545.93 1383.73 506.81"/><polygon class="cls-3" points="2489.55 946.1 2332.43 973.91 2274.07 1052.67 2489.55 946.1"/><polygon class="cls-8" points="2296.78 522.59 2446.41 588.27 2455.64 708.44 2296.78 522.59"/></svg>