<?xml version="1.0" encoding="utf-8"?>
<!-- Generator: Adobe Illustrator 19.2.0, SVG Export Plug-In . SVG Version: 6.00 Build 0)  -->
<svg version="1.1" id="Ebene_1" xmlns="http://www.w3.org/2000/svg" xmlns:xlink="http://www.w3.org/1999/xlink" x="0px" y="0px"
	 viewBox="0 0 1920 1080" style="enable-background:new 0 0 1920 1080;" xml:space="preserve">
<style type="text/css">
	.st0{fill:#F0CA0C;}
	.st1{fill:#DE9918;}
	.st2{fill:#436FB3;}
	.st3{fill:#C53418;}
	.st4{fill:#4B8B3E;}
	.st5{fill:#4F3687;}
	.st6{fill:#96BA38;}
	.st7{fill:#9174AD;}
	.st8{fill:#4CAFE8;}
</style>
<polygon class="st0" points="63.2,532.5 398.6,963.1 353,729.4 "/>
<polygon class="st1" points="-173.6,648.6 -43.5,579.1 58.5,604 "/>
<polygon class="st2" points="315.4,295.5 154.1,324.1 94.2,404.9 "/>
<polygon class="st3" points="-170.6,96.3 35.7,138.5 88.2,248.4 "/>
<polygon class="st3" points="1978.2,799.2 2063.7,946.2 2025.7,1036.8 "/>
<polygon class="st3" points="1486.3,769.4 1443.3,871.8 1381.1,887.7 "/>
<polygon class="st4" points="506.1,210.4 424.3,46.1 319.7,38.3 "/>
<polygon class="st5" points="-114.6,867.3 82.4,908.9 123.8,1051.6 "/>
<polygon class="st6" points="214,-58.5 57.3,-65.6 9.1,1.3 "/>
<polygon class="st0" points="1348.8,84.1 1446.3,-91.9 1577.6,-130.1 "/>
<polygon class="st0" points="778.9,436.8 1125.3,384.3 1317.5,524.8 "/>
<polygon class="st0" points="1649.2,835.3 2158.3,638.7 1921.4,614.8 "/>
<polygon class="st1" points="1526.7,615.1 1656.7,545.6 1758.7,570.4 "/>
<polygon class="st1" points="390.5,-152.2 678.7,101 655.4,-47.1 "/>
<polygon class="st1" points="321.2,386 551.1,393.7 669.5,506.8 "/>
<polygon class="st2" points="1065.7,-38.5 823.2,4.4 733.1,126 "/>
<polygon class="st2" points="2073.3,129.6 1881.8,201.1 1826.5,313.9 "/>
<polygon class="st2" points="976.6,857.9 815.3,886.5 755.4,967.3 "/>
<polygon class="st3" points="1451.4,109.6 1657.7,151.9 1710.2,261.8 "/>
<polygon class="st3" points="693.3,670.9 610.1,582.1 400.6,604.2 "/>
<polygon class="st4" points="1242.3,231.3 1197.9,141.9 1141,137.7 "/>
<polygon class="st4" points="695,1125.5 595.2,925 467.5,915.3 "/>
<polygon class="st7" points="1378.2,988.7 929.5,961.5 1144.1,1058.1 "/>
<polygon class="st7" points="1296.2,-16.2 1068,-138.3 1157.4,-36 "/>
<polygon class="st8" points="1650.9,386.5 1523,328.1 1424.7,384.4 "/>
<polygon class="st5" points="1020.1,602.7 990,695.7 919,708.3 "/>
<polygon class="st5" points="1664.2,894.5 1796.3,922.4 1824,1018.1 "/>
<polygon class="st6" points="2058.1,540.5 2002.4,373.2 1912.8,349.6 "/>
<polygon class="st6" points="1373,701 1292.9,622.1 1235,634.6 "/>
<polygon class="st6" points="1892.3,-70.2 1735.6,-77.2 1687.4,-10.3 "/>
<polygon class="st6" points="975.7,219.5 712.2,207.7 631.1,320.2 "/>
</svg>
